<?xml version="1.0" standalone="no"?>
<!DOCTYPE svg PUBLIC "-//W3C//DTD SVG 1.1//EN" 
  "http://www.w3.org/Graphics/SVG/1.1/DTD/svg11.dtd">
<svg width="1024" height="1024" viewBox="0 0 1024 1024"
     xmlns="http://www.w3.org/2000/svg" version="1.1">
<desc>Hercules4WD.blend, (Blender 4.1.0)</desc>
<polygon stroke="black" stroke-width="1" fill="rgb(204, 204, 204)" fill-opacity="0.25" points="306.439,179.411 306.439,235.119 311.682,235.119 311.682,179.411 " />
<polygon stroke="black" stroke-width="1" fill="rgb(204, 204, 204)" fill-opacity="0.25" points="306.439,513.660 306.439,569.368 311.682,569.368 311.682,513.660 " />
<polygon stroke="black" stroke-width="1" fill="rgb(204, 204, 204)" fill-opacity="0.25" points="306.439,346.536 306.439,402.244 311.682,402.244 311.682,346.536 " />
<polygon stroke="black" stroke-width="1" fill="rgb(204, 204, 204)" fill-opacity="0.25" points="306.439,235.119 306.439,290.828 311.682,290.828 311.682,235.119 " />
<polygon stroke="black" stroke-width="1" fill="rgb(204, 204, 204)" fill-opacity="0.25" points="306.439,402.244 306.439,457.952 311.682,457.952 311.682,402.244 " />
<polygon stroke="black" stroke-width="1" fill="rgb(204, 204, 204)" fill-opacity="0.25" points="306.439,457.952 306.439,513.660 311.682,513.660 311.682,457.952 " />
<polygon stroke="black" stroke-width="1" fill="rgb(204, 204, 204)" fill-opacity="0.25" points="306.439,290.828 306.439,346.536 311.682,346.536 311.682,290.828 " />
<polygon stroke="black" stroke-width="1" fill="rgb(204, 204, 204)" fill-opacity="0.25" points="306.439,569.368 306.439,625.076 311.682,625.076 311.682,569.368 " />
<polygon stroke="black" stroke-width="1" fill="rgb(204, 204, 204)" fill-opacity="0.25" points="306.439,847.909 306.439,903.619 311.682,903.617 311.682,847.909 " />
<polygon stroke="black" stroke-width="1" fill="rgb(204, 204, 204)" fill-opacity="0.25" points="306.439,680.784 306.439,736.493 311.682,736.493 311.682,680.784 " />
<polygon stroke="black" stroke-width="1" fill="rgb(204, 204, 204)" fill-opacity="0.25" points="306.439,903.619 306.439,959.708 311.682,959.325 311.682,903.617 " />
<polygon stroke="black" stroke-width="1" fill="rgb(204, 204, 204)" fill-opacity="0.25" points="306.439,792.201 306.439,847.909 311.682,847.909 311.682,792.201 " />
<polygon stroke="black" stroke-width="1" fill="rgb(204, 204, 204)" fill-opacity="0.25" points="306.439,67.612 306.439,123.701 311.682,123.703 311.682,67.995 " />
<polygon stroke="black" stroke-width="1" fill="rgb(204, 204, 204)" fill-opacity="0.25" points="306.439,736.493 306.439,792.201 311.682,792.201 311.682,736.493 " />
<polygon stroke="black" stroke-width="1" fill="rgb(204, 204, 204)" fill-opacity="0.25" points="306.439,123.701 306.439,179.411 311.682,179.411 311.682,123.703 " />
<polygon stroke="black" stroke-width="1" fill="rgb(204, 204, 204)" fill-opacity="0.25" points="306.439,625.076 306.439,680.784 311.682,680.784 311.682,625.076 " />
<polygon stroke="black" stroke-width="1" fill="rgb(204, 204, 204)" fill-opacity="0.25" points="435.949,339.007 464.389,367.447 501.547,382.839 541.767,382.839 578.926,367.447 607.366,339.007 622.757,301.849 622.757,261.628 607.366,224.470 578.926,196.030 541.767,180.639 501.547,180.639 464.389,196.030 435.949,224.470 420.557,261.629 420.557,301.849 " />
<polygon stroke="black" stroke-width="1" fill="rgb(204, 204, 204)" fill-opacity="0.25" points="182.392,346.536 182.392,402.244 227.530,402.244 227.530,346.536 " />
<polygon stroke="black" stroke-width="1" fill="rgb(204, 204, 204)" fill-opacity="0.25" points="182.392,457.952 182.392,513.660 227.530,513.660 227.530,457.952 " />
<polygon stroke="black" stroke-width="1" fill="rgb(204, 204, 204)" fill-opacity="0.25" points="182.392,569.368 182.392,625.076 227.530,625.076 227.530,569.368 " />
<polygon stroke="black" stroke-width="1" fill="rgb(204, 204, 204)" fill-opacity="0.25" points="182.392,680.784 182.392,736.493 227.530,736.493 227.530,680.784 " />
<polygon stroke="black" stroke-width="1" fill="rgb(204, 204, 204)" fill-opacity="0.25" points="182.392,792.201 182.392,847.909 227.530,847.909 227.530,792.201 " />
<polygon stroke="black" stroke-width="1" fill="rgb(204, 204, 204)" fill-opacity="0.25" points="182.392,736.493 182.392,792.201 227.530,792.201 227.530,736.493 " />
<polygon stroke="black" stroke-width="1" fill="rgb(204, 204, 204)" fill-opacity="0.25" points="182.392,625.076 182.392,680.784 227.530,680.784 227.530,625.076 " />
<polygon stroke="black" stroke-width="1" fill="rgb(204, 204, 204)" fill-opacity="0.25" points="182.392,513.660 182.392,569.368 227.530,569.368 227.530,513.660 " />
<polygon stroke="black" stroke-width="1" fill="rgb(204, 204, 204)" fill-opacity="0.25" points="182.392,402.244 182.392,457.952 227.530,457.952 227.530,402.244 " />
<polygon stroke="black" stroke-width="1" fill="rgb(204, 204, 204)" fill-opacity="0.25" points="182.392,290.828 182.392,346.536 227.530,346.536 227.530,290.828 " />
<polygon stroke="black" stroke-width="1" fill="rgb(204, 204, 204)" fill-opacity="0.25" points="182.392,847.909 182.392,903.617 227.530,903.617 227.530,847.909 " />
<polygon stroke="black" stroke-width="1" fill="rgb(204, 204, 204)" fill-opacity="0.25" points="182.392,903.617 182.392,959.325 227.530,959.325 227.530,903.617 " />
<polygon stroke="black" stroke-width="1" fill="rgb(204, 204, 204)" fill-opacity="0.25" points="182.392,67.995 182.392,123.703 227.530,123.703 227.530,67.995 " />
<polygon stroke="black" stroke-width="1" fill="rgb(204, 204, 204)" fill-opacity="0.25" points="182.392,123.703 182.392,179.411 227.530,179.411 227.530,123.703 " />
<polygon stroke="black" stroke-width="1" fill="rgb(204, 204, 204)" fill-opacity="0.25" points="182.392,179.411 182.392,235.119 227.530,235.119 227.530,179.411 " />
<polygon stroke="black" stroke-width="1" fill="rgb(204, 204, 204)" fill-opacity="0.25" points="182.392,235.119 182.392,290.828 227.530,290.828 227.530,235.119 " />
<polygon stroke="black" stroke-width="1" fill="rgb(204, 204, 204)" fill-opacity="0.25" points="534.790,476.349 494.355,521.137 503.710,527.769 542.558,484.779 " />
<polygon stroke="black" stroke-width="1" fill="rgb(204, 204, 204)" fill-opacity="0.25" points="445.254,750.920 463.871,808.414 474.306,803.618 456.455,748.400 " />
<polygon stroke="black" stroke-width="1" fill="rgb(204, 204, 204)" fill-opacity="0.25" points="638.634,966.016 697.798,978.625 698.863,967.330 642.053,955.041 " />
<polygon stroke="black" stroke-width="1" fill="rgb(204, 204, 204)" fill-opacity="0.25" points="494.047,860.795 534.470,905.769 542.056,897.137 503.259,853.932 " />
<polygon stroke="black" stroke-width="1" fill="rgb(204, 204, 204)" fill-opacity="0.25" points="697.798,978.625 756.789,978.434 754.703,967.793 698.863,967.330 " />
<polygon stroke="black" stroke-width="1" fill="rgb(204, 204, 204)" fill-opacity="0.25" points="583.377,941.364 638.634,966.016 642.053,955.041 589.004,931.340 " />
<polygon stroke="black" stroke-width="1" fill="rgb(204, 204, 204)" fill-opacity="0.25" points="748.639,448.740 687.984,448.040 689.298,459.892 746.218,460.218 " />
<polygon stroke="black" stroke-width="1" fill="rgb(204, 204, 204)" fill-opacity="0.25" points="534.470,905.769 583.377,941.364 589.004,931.340 542.056,897.137 " />
<polygon stroke="black" stroke-width="1" fill="rgb(204, 204, 204)" fill-opacity="0.25" points="697.759,404.060 638.765,416.512 642.430,427.370 699.038,415.595 " />
<polygon stroke="black" stroke-width="1" fill="rgb(204, 204, 204)" fill-opacity="0.25" points="463.871,808.414 494.047,860.795 503.259,853.932 474.306,803.618 " />
<polygon stroke="black" stroke-width="1" fill="rgb(204, 204, 204)" fill-opacity="0.25" points="638.765,416.512 583.640,440.961 589.483,450.818 642.430,427.370 " />
<polygon stroke="black" stroke-width="1" fill="rgb(204, 204, 204)" fill-opacity="0.25" points="439.003,690.829 445.254,750.920 456.455,748.400 450.479,690.694 " />
<polygon stroke="black" stroke-width="1" fill="rgb(204, 204, 204)" fill-opacity="0.25" points="494.355,521.137 464.110,573.372 474.643,577.914 503.710,527.769 " />
<polygon stroke="black" stroke-width="1" fill="rgb(204, 204, 204)" fill-opacity="0.25" points="583.640,440.961 534.790,476.349 542.558,484.779 589.483,450.818 " />
<polygon stroke="black" stroke-width="1" fill="rgb(204, 204, 204)" fill-opacity="0.25" points="464.110,573.372 445.384,630.771 456.634,633.025 474.643,577.914 " />
<polygon stroke="black" stroke-width="1" fill="rgb(204, 204, 204)" fill-opacity="0.25" points="445.384,630.771 439.003,690.829 450.479,690.694 456.634,633.025 " />
<polygon stroke="black" stroke-width="1" fill="rgb(204, 204, 204)" fill-opacity="0.25" points="542.056,897.137 589.004,931.340 593.443,923.659 547.993,890.550 " />
<polygon stroke="black" stroke-width="1" fill="rgb(204, 204, 204)" fill-opacity="0.25" points="699.038,415.595 642.430,427.370 645.151,435.779 699.953,424.254 " />
<polygon stroke="black" stroke-width="1" fill="rgb(204, 204, 204)" fill-opacity="0.25" points="474.306,803.618 503.259,853.932 510.435,848.725 482.405,800.018 " />
<polygon stroke="black" stroke-width="1" fill="rgb(204, 204, 204)" fill-opacity="0.25" points="642.430,427.370 589.483,450.818 593.897,458.482 645.151,435.779 " />
<polygon stroke="black" stroke-width="1" fill="rgb(204, 204, 204)" fill-opacity="0.25" points="450.479,690.694 456.455,748.400 465.123,746.564 459.337,690.701 " />
<polygon stroke="black" stroke-width="1" fill="rgb(204, 204, 204)" fill-opacity="0.25" points="503.710,527.769 474.643,577.914 482.726,581.522 510.864,532.978 " />
<polygon stroke="black" stroke-width="1" fill="rgb(204, 204, 204)" fill-opacity="0.25" points="589.483,450.818 542.558,484.779 548.471,491.359 593.897,458.482 " />
<polygon stroke="black" stroke-width="1" fill="rgb(204, 204, 204)" fill-opacity="0.25" points="474.643,577.914 456.634,633.025 465.294,634.874 482.726,581.522 " />
<polygon stroke="black" stroke-width="1" fill="rgb(204, 204, 204)" fill-opacity="0.25" points="456.634,633.025 450.479,690.694 459.337,690.701 465.294,634.874 " />
<polygon stroke="black" stroke-width="1" fill="rgb(204, 204, 204)" fill-opacity="0.25" points="542.558,484.779 503.710,527.769 510.864,532.978 548.471,491.359 " />
<polygon stroke="black" stroke-width="1" fill="rgb(204, 204, 204)" fill-opacity="0.25" points="456.455,748.400 474.306,803.618 482.405,800.018 465.123,746.564 " />
<polygon stroke="black" stroke-width="1" fill="rgb(204, 204, 204)" fill-opacity="0.25" points="642.053,955.041 698.863,967.330 699.836,958.391 644.801,946.600 " />
<polygon stroke="black" stroke-width="1" fill="rgb(204, 204, 204)" fill-opacity="0.25" points="503.259,853.932 542.056,897.137 547.993,890.550 510.435,848.725 " />
<polygon stroke="black" stroke-width="1" fill="rgb(204, 204, 204)" fill-opacity="0.25" points="698.863,967.330 754.703,967.793 754.812,959.081 699.836,958.391 " />
<polygon stroke="black" stroke-width="1" fill="rgb(204, 204, 204)" fill-opacity="0.25" points="589.004,931.340 642.053,955.041 644.801,946.600 593.443,923.659 " />
<polygon stroke="black" stroke-width="1" fill="rgb(204, 204, 204)" fill-opacity="0.25" points="746.218,460.218 689.298,459.892 690.238,468.789 746.192,468.630 " />
<polygon stroke="black" stroke-width="1" fill="rgb(204, 204, 204)" fill-opacity="0.25" points="227.530,625.076 227.530,680.784 306.439,680.784 306.439,625.076 " />
<polygon stroke="black" stroke-width="1" fill="rgb(204, 204, 204)" fill-opacity="0.25" points="227.530,123.703 227.530,179.411 306.439,179.411 306.439,123.701 " />
<polygon stroke="black" stroke-width="1" fill="rgb(204, 204, 204)" fill-opacity="0.25" points="227.530,736.493 227.530,792.201 306.439,792.201 306.439,736.493 " />
<polygon stroke="black" stroke-width="1" fill="rgb(204, 204, 204)" fill-opacity="0.25" points="227.530,67.995 227.530,123.703 306.439,123.701 306.439,67.612 " />
<polygon stroke="black" stroke-width="1" fill="rgb(204, 204, 204)" fill-opacity="0.25" points="227.530,792.201 227.530,847.909 306.439,847.909 306.439,792.201 " />
<polygon stroke="black" stroke-width="1" fill="rgb(204, 204, 204)" fill-opacity="0.25" points="227.530,903.617 227.530,959.325 306.439,959.708 306.439,903.619 " />
<polygon stroke="black" stroke-width="1" fill="rgb(204, 204, 204)" fill-opacity="0.25" points="227.530,680.784 227.530,736.493 306.439,736.493 306.439,680.784 " />
<polygon stroke="black" stroke-width="1" fill="rgb(204, 204, 204)" fill-opacity="0.25" points="227.530,847.909 227.530,903.617 306.439,903.619 306.439,847.909 " />
<polygon stroke="black" stroke-width="1" fill="rgb(204, 204, 204)" fill-opacity="0.25" points="227.530,569.368 227.530,625.076 306.439,625.076 306.439,569.368 " />
<polygon stroke="black" stroke-width="1" fill="rgb(204, 204, 204)" fill-opacity="0.25" points="227.530,290.828 227.530,346.536 306.439,346.536 306.439,290.828 " />
<polygon stroke="black" stroke-width="1" fill="rgb(204, 204, 204)" fill-opacity="0.25" points="227.530,457.952 227.530,513.660 306.439,513.660 306.439,457.952 " />
<polygon stroke="black" stroke-width="1" fill="rgb(204, 204, 204)" fill-opacity="0.25" points="227.530,402.244 227.530,457.952 306.439,457.952 306.439,402.244 " />
<polygon stroke="black" stroke-width="1" fill="rgb(204, 204, 204)" fill-opacity="0.25" points="227.530,235.119 227.530,290.828 306.439,290.828 306.439,235.119 " />
<polygon stroke="black" stroke-width="1" fill="rgb(204, 204, 204)" fill-opacity="0.25" points="227.530,346.536 227.530,402.244 306.439,402.244 306.439,346.536 " />
<polygon stroke="black" stroke-width="1" fill="rgb(204, 204, 204)" fill-opacity="0.25" points="227.530,513.660 227.530,569.368 306.439,569.368 306.439,513.660 " />
<polygon stroke="black" stroke-width="1" fill="rgb(204, 204, 204)" fill-opacity="0.25" points="227.530,179.411 227.530,235.119 306.439,235.119 306.439,179.411 " />

</svg>
