<?xml version="1.0" standalone="no"?>
<!DOCTYPE svg PUBLIC "-//W3C//DTD SVG 1.1//EN" 
  "http://www.w3.org/Graphics/SVG/1.1/DTD/svg11.dtd">
<svg width="1024" height="1024" viewBox="0 0 1024 1024"
     xmlns="http://www.w3.org/2000/svg" version="1.1">
<desc>Hercules4WD.blend, (Blender 4.1.0)</desc>
<polygon stroke="black" stroke-width="1" fill="rgb(204, 204, 204)" fill-opacity="0.25" points="24.257,159.272 15.068,163.079 11.261,172.268 11.261,445.767 82.274,445.767 82.274,159.272 " />
<polygon stroke="black" stroke-width="1" fill="rgb(204, 204, 204)" fill-opacity="0.25" points="138.287,167.462 138.287,445.767 194.299,445.767 194.299,168.201 " />
<polygon stroke="black" stroke-width="1" fill="rgb(204, 204, 204)" fill-opacity="0.25" points="463.906,445.767 463.906,167.462 407.893,168.201 407.893,445.767 " />
<polygon stroke="black" stroke-width="1" fill="rgb(204, 204, 204)" fill-opacity="0.25" points="385.371,389.889 380.066,389.889 380.066,445.767 385.371,445.767 " />
<polygon stroke="black" stroke-width="1" fill="rgb(204, 204, 204)" fill-opacity="0.25" points="590.932,445.767 590.932,172.268 587.125,163.079 577.936,159.272 519.919,159.272 519.919,445.767 " />
<polygon stroke="black" stroke-width="1" fill="rgb(204, 204, 204)" fill-opacity="0.25" points="337.495,167.768 332.189,167.768 332.189,436.011 337.495,436.011 " />
<polygon stroke="black" stroke-width="1" fill="rgb(204, 204, 204)" fill-opacity="0.25" points="385.371,334.438 380.066,334.438 380.066,389.889 385.371,389.889 " />
<polygon stroke="black" stroke-width="1" fill="rgb(204, 204, 204)" fill-opacity="0.25" points="519.919,445.767 519.919,159.272 463.906,167.462 463.906,445.767 " />
<polygon stroke="black" stroke-width="1" fill="rgb(204, 204, 204)" fill-opacity="0.25" points="82.274,159.272 82.274,445.767 138.287,445.767 138.287,167.462 " />
<polygon stroke="black" stroke-width="1" fill="rgb(204, 204, 204)" fill-opacity="0.25" points="380.066,276.517 385.371,276.517 385.371,267.124 380.066,267.124 " />
<polygon stroke="black" stroke-width="1" fill="rgb(204, 204, 204)" fill-opacity="0.25" points="332.189,445.767 337.495,445.767 337.495,436.011 332.189,436.011 " />
<polygon stroke="black" stroke-width="1" fill="rgb(204, 204, 204)" fill-opacity="0.25" points="385.371,276.517 380.066,276.517 380.066,334.438 385.371,334.438 " />
<polygon stroke="black" stroke-width="1" fill="rgb(204, 204, 204)" fill-opacity="0.25" points="309.667,71.657 216.822,71.657 216.822,445.767 309.667,445.767 " />
<polygon stroke="black" stroke-width="1" fill="rgb(204, 204, 204)" fill-opacity="0.25" points="897.371,468.289 804.526,468.289 804.526,1012.739 897.371,1012.739 " />
<polygon stroke="black" stroke-width="1" fill="rgb(204, 204, 204)" fill-opacity="0.25" points="897.371,71.657 804.526,71.657 804.526,445.767 897.371,445.767 " />
<polygon stroke="black" stroke-width="1" fill="rgb(204, 204, 204)" fill-opacity="0.25" points="1012.739,468.289 919.893,468.289 919.893,1012.739 1012.739,1012.739 " />
<polygon stroke="black" stroke-width="1" fill="rgb(204, 204, 204)" fill-opacity="0.25" points="385.371,1012.739 385.371,468.289 11.261,468.289 11.261,1012.739 " />
<polygon stroke="black" stroke-width="1" fill="rgb(204, 204, 204)" fill-opacity="0.25" points="782.003,1012.739 782.003,468.289 407.893,468.289 407.893,1012.739 " />

</svg>
